<svg width="119" height="28" viewBox="0 0 119 28" fill="none" xmlns="http://www.w3.org/2000/svg">
<g clip-path="url(#clip0_2600_2273)">
<path d="M116.904 9.26731L116.57 13.3752H114.935C112.325 13.3752 110.969 15.5223 110.969 17.5799V26.8578H106.344V9.26731H110.724L110.824 11.4628C111.743 9.95728 113.352 9.26731 115.336 9.26731H116.904ZM84.8356 26.8577H80.206V17.5586C80.206 15.6111 80.0421 13.1599 77.3733 13.1599C74.803 13.1599 73.779 15.0637 73.779 17.2806V26.8577H69.151V9.26715H73.4419L73.5399 11.516C74.4596 10.0104 76.1725 8.83805 78.6991 8.83805C83.3635 8.83805 84.8356 12.256 84.8356 15.8128V26.8577ZM67.1323 22.7486L66.8086 26.7511C65.6986 27.0567 64.713 27.1663 63.5205 27.1663C59.1586 27.1663 57.8934 25.1135 57.8934 20.9875V4.30676H62.5224V9.26753H67.1287L66.8086 13.3749H62.5224V20.6302C62.5224 22.286 62.9649 23.1804 64.6197 23.1804C65.3391 23.1804 66.1395 23.0914 67.1323 22.7486ZM56.3734 9.26731L56.0149 13.3752H54.7571C52.1525 13.3752 50.8572 15.5196 50.8572 17.5799V26.8578H46.2277V9.26731H50.6109L50.7022 11.4628C51.6265 9.95728 53.2351 9.26731 55.2213 9.26731H56.3734ZM25.3375 24.9089C22.1976 26.6327 19.0614 27.6273 14.9189 27.5038C7.23921 27.2631 1.69873 22.3689 1.69873 14.102C1.69873 5.87132 7.29265 0.61242 14.9226 0.488906C18.7901 0.428215 22.251 1.43549 24.9562 3.88553L21.6976 7.26884C20.0237 5.80424 17.5608 4.94817 14.6175 5.085C9.81571 5.31446 6.92227 8.8958 6.85846 13.8198C6.7957 19.1549 9.98325 22.8316 14.9661 22.9657C17.3107 23.0258 18.9903 22.7027 20.4438 22.033V16.5797H15.2649L15.6145 12.1072H25.3375V24.9089ZM104.277 19.7342H91.5847C91.9463 21.9819 93.6679 23.3342 95.8118 23.3954C97.8961 23.4535 99.062 22.8071 100.586 21.2228L103.608 23.5866C101.461 26.3002 98.8846 27.2877 95.9503 27.2877C90.789 27.2877 86.9224 23.5839 86.9224 18.062C86.9224 12.5459 90.7698 8.83789 95.7573 8.83789C101.254 8.83789 104.277 12.2558 104.277 18.3229V19.7342ZM99.6389 16.0565C99.4964 13.8343 97.8747 12.4294 95.6407 12.5188C93.392 12.6061 91.8949 14.109 91.5847 16.0565H99.6389ZM43.3134 15.339V26.8576H39.2321L39.1309 25.1231C37.8788 26.715 35.8459 27.2878 33.7528 27.2878C30.601 27.2878 27.6231 25.6928 27.5608 21.9779C27.4669 16.1386 33.9639 15.7239 38.0442 15.7239H38.8596V15.4928C38.8596 13.5619 37.6147 12.5189 35.2706 12.5189C33.5879 12.5189 31.9269 13.2116 30.6986 14.3934L28.0277 11.6085C30.4527 9.59078 32.9758 8.83799 35.6638 8.83799C40.9729 8.83799 43.3134 11.3561 43.3134 15.339ZM38.8596 19.1865H38.2159C36.0243 19.1913 32.1749 19.302 32.1894 21.6541C32.2102 24.9677 38.8596 23.9146 38.8596 19.9185V19.1865ZM113.292 24.8115C113.292 23.6919 114.115 22.848 115.171 22.848C116.213 22.848 117.038 23.6919 117.038 24.8115C117.038 25.9508 116.213 26.792 115.171 26.792C114.115 26.792 113.292 25.9508 113.292 24.8115ZM115.171 27.1854C116.428 27.1854 117.5 26.1834 117.5 24.8115C117.5 23.4534 116.428 22.4535 115.171 22.4535C113.903 22.4535 112.829 23.4534 112.829 24.8115C112.829 26.1834 113.903 27.1854 115.171 27.1854ZM114.683 25.001H115.148L115.847 26.1834H116.3L115.543 24.9819C115.934 24.9328 116.233 24.7178 116.233 24.2296C116.233 23.6919 115.921 23.4534 115.293 23.4534H114.282V26.1834H114.683V25.001ZM114.683 24.6491V23.8052H115.231C115.512 23.8052 115.811 23.8675 115.811 24.2057C115.811 24.6246 115.506 24.6491 115.166 24.6491H114.683Z" fill="#2C2C2C"/>
</g>
<defs>
<clipPath id="clip0_2600_2273">
<rect width="117.322" height="27.8639" fill="white" transform="translate(0.967773 0.0683594)"/>
</clipPath>
</defs>
</svg>
