<svg width="114" height="50" viewBox="0 0 114 50" fill="none" xmlns="http://www.w3.org/2000/svg">
<g clip-path="url(#clip0_2600_2259)">
<path fill-rule="evenodd" clip-rule="evenodd" d="M99.6369 45.9576C98.3985 47.3932 95.8847 47.1779 95.4717 45.0786C95.2746 44.0376 95.5615 42.7817 96.0105 41.9024C97.0159 39.9824 98.8291 38.4035 100.894 37.8832C100.894 39.0675 100.894 40.6286 100.858 41.8308C100.822 43.1586 100.535 44.8989 99.6369 45.9576ZM79.6553 17.5895C80.8045 17.6611 81.7201 18.917 81.4148 21.0523C81.0378 23.5826 78.9371 26.2917 76.5495 26.9017C76.1723 26.0047 75.993 24.1744 76.2081 22.3802C76.6032 19.0964 78.2908 17.5174 79.6553 17.5895ZM34.8984 29.8266C33.1209 27.4581 33.1925 24.5871 33.7495 21.8598C35.4906 25.7714 40.1407 26.4534 43.0131 25.8792C42.6363 28.8936 41.0558 31.5313 38.3274 31.5313C36.8014 31.5492 35.6879 30.8853 34.8984 29.8266ZM41.1819 18.7733C42.0578 19.6671 42.6489 20.9703 42.9193 22.4163C42.921 22.4162 42.9234 22.4339 42.9234 22.4339C42.9223 22.4281 42.9207 22.4223 42.9193 22.4163C40.91 22.7026 38.9726 22.3257 37.5554 21.2315C36.5323 20.4243 36.2627 19.1504 36.6936 18.3787C37.3217 17.2664 39.2072 16.7818 41.1819 18.7733ZM13.8215 4.05996C15.0598 2.60667 17.5735 2.83971 17.9685 4.93925C18.1658 5.96191 17.8966 7.21787 17.448 8.09714C16.4422 10.0171 14.629 11.596 12.5643 12.1343C12.5643 10.9323 12.5463 9.38909 12.6005 8.18682C12.6363 6.85918 12.9237 5.10062 13.8215 4.05996ZM105.472 35.1737C105.49 28.9295 105.472 22.6852 105.472 16.4408C105.472 14.8979 101.038 14.8079 100.894 16.3692C100.894 16.9971 100.894 17.6431 100.876 18.2711C100.804 21.6983 99.1706 28.104 96.4595 30.4366C95.7235 31.0648 95.059 31.1006 94.5926 30.7595C94.1794 30.4544 94.0715 29.6832 94.0715 29.0192V28.158C94.0715 24.3002 94.0897 20.3166 94.0715 16.4587C94.0715 14.9155 89.6371 14.8079 89.4936 16.3692C89.4936 19.9577 89.4936 23.4389 89.5117 26.9916C86.5851 31.6568 79.817 33.846 77.0162 28.3193C78.7577 28.9833 80.6067 28.6602 81.8636 27.9965C84.0361 26.848 85.6876 24.9461 86.0107 21.9316C86.3159 13.1033 74.6467 11.9013 72.0431 20.891C71.6125 22.3802 71.379 23.9771 71.4331 25.5382C71.4865 27.0274 71.7919 28.409 72.3125 29.6293C71.3608 30.5622 70.2657 31.2082 69.1709 31.1725C67.7342 31.1185 67.8783 29.3422 67.8783 28.3193V21.5905C67.8783 20.7832 67.8783 19.9757 67.8062 19.1864C67.5731 16.8358 65.7776 14.9695 63.2643 14.8079C59.6912 14.7542 57.178 18.0737 55.9393 21.7163C55.9216 19.6888 55.9393 18.4864 55.9393 16.4408C55.9216 14.9155 51.8102 14.8079 51.3434 16.4228C50.751 18.4685 48.8118 20.0655 46.9985 21.0163C46.4422 19.6707 45.7422 18.4328 44.7727 17.3742C40.7867 13.0496 35.024 13.8392 31.6485 17.4098C28.9736 20.245 28.166 25.3588 29.6021 28.9473C28.543 30.2035 27.0889 31.2262 25.7961 31.1725C25.1496 31.1365 24.7906 30.7595 24.6289 30.1675C24.4673 29.5933 24.5034 28.9117 24.5034 28.3193C24.5034 26.0764 24.4853 23.8335 24.5034 21.5905C24.5034 20.7832 24.5034 19.9757 24.4318 19.1864C24.1982 16.8358 22.8157 14.9515 20.1948 14.7901C15.6884 14.5926 13.8752 18.9531 12.5463 22.5416V14.8799C13.498 14.7182 14.4138 14.4849 15.329 14.2159C25.2574 11.363 23.3362 0.937776 15.9398 0.75843C10.9488 0.650768 7.98631 3.93432 8.02258 8.92248V12.1523C6.22706 11.8833 4.88042 9.55074 4.12665 8.04346C4.01866 7.81016 3.91095 7.57683 3.80348 7.34353C3.71376 7.11021 3.46234 6.98482 3.22862 7.05651C3.03145 7.11021 2.83401 7.18216 2.6363 7.25385C1.91852 7.57683 1.32566 8.13314 1.03876 8.86877C0.518158 10.1787 1.03876 11.5783 1.95398 12.565C3.46234 14.1442 5.86817 14.7182 7.98632 14.8259C7.96832 21.0523 7.98632 27.2607 7.98632 33.4871C8.05804 34.3664 9.26123 34.5997 9.96127 34.6174C10.6976 34.6354 12.2951 34.4021 12.3134 33.3974L12.3671 32.6258C12.6723 29.8626 15.329 18.8094 18.6863 18.7914C19.5124 18.7914 19.9255 19.3298 19.9255 20.1372V29.9883C19.9255 33.0385 21.6488 35.084 24.7727 35.084C27.1965 35.102 29.3863 33.3434 30.697 31.1546C30.8764 31.3878 31.0202 31.6388 31.2176 31.8541C32.9232 33.846 35.4367 35.1201 38.3094 35.1379C44.5746 35.048 47.7883 29.6652 47.5554 24.3718C49.0094 23.5646 50.3201 22.5236 51.3251 21.2315V33.4871C51.397 34.3664 52.654 34.5997 53.3543 34.6174C54.0901 34.6354 55.6881 34.4021 55.6881 33.3974L55.7599 32.6258L55.975 30.5802C56.2985 27.7273 58.435 18.8094 62.0793 18.7914C62.8868 18.7914 63.3004 19.3298 63.3004 20.1372V29.9883C63.3004 33.0385 65.0238 35.084 68.1652 35.084C70.3378 35.102 72.3125 33.6845 73.6411 31.8184C75.4003 33.9896 78.0938 35.2634 81.3248 35.2634C85.1134 35.2634 87.8598 33.5947 89.6911 30.9032C90.104 33.218 91.3428 35.048 94.3771 35.084C97.5185 35.102 99.9065 30.7239 100.894 28.086V35.1379C99.96 35.2993 99.0448 35.5326 98.1295 35.8017C88.2011 38.6369 90.104 49.0798 97.5008 49.2415C102.51 49.3671 105.454 46.0833 105.436 41.0952C105.436 40.2519 105.418 38.6728 105.436 37.8472C107.213 38.1165 108.578 40.4672 109.314 41.9745C109.439 42.2076 109.547 42.4407 109.637 42.6741C109.745 42.9074 109.978 43.015 110.23 42.961C110.427 42.9074 110.624 42.8358 110.804 42.7457C111.54 42.4229 112.133 41.8847 112.42 41.131C112.941 39.8213 112.42 38.4396 111.486 37.4525C109.996 35.8557 107.572 35.2993 105.472 35.1737Z" fill="#2C2C2C"/>
</g>
<defs>
<clipPath id="clip0_2600_2259">
<rect width="112.218" height="48.4891" fill="white" transform="translate(0.832031 0.755859)"/>
</clipPath>
</defs>
</svg>
