<svg width="225" height="30" viewBox="0 0 225 30" fill="none" xmlns="http://www.w3.org/2000/svg">
<path d="M29.7787 16.2375L24.8138 0.538086H11.0675V3.04729H12.3644C13.9946 3.04729 15.3285 3.92891 15.8472 5.52259L23.4429 29.4278H30.3345L33.7062 18.8145L33.6693 18.7807C31.4461 18.7807 30.3716 18.0347 29.7787 16.2375ZM57.6048 26.9186C55.9745 26.9186 54.6777 25.9353 54.196 24.4094L46.6004 0.538086H36.0406L45.1924 29.4278H58.9016V26.9186H57.6048ZM1.39697 26.9186V29.4617H13.5871V26.9526H1.39697V26.9186Z" fill="#2C2C2C"/>
<path d="M92.4706 9.99815L87.1722 23.731H85.7271L80.0953 9.99815L78.6873 20.5776C78.6502 20.781 78.6132 21.0522 78.6132 21.1878C78.6132 22.4764 79.206 22.7137 81.2809 22.8154V23.697H74.7969V22.8154C76.3901 22.7476 76.9458 22.4425 77.0941 21.3235L78.8725 8.57402C79.0579 7.18378 78.3538 6.77689 76.5012 6.67516V5.82746H82.8371C82.9112 6.36999 83.0223 6.8108 83.2447 7.38724L87.802 18.5091L92.0261 7.31941C92.2482 6.77689 92.4336 6.33608 92.4706 5.79354H98.6953V6.64125C96.8798 6.74297 96.1758 7.14988 96.3611 8.54011L98.0655 21.2895C98.2507 22.4764 98.8065 22.7137 100.363 22.7815V23.6632H91.322V22.7815C93.2487 22.6797 93.9156 22.4085 93.9156 21.154C93.9156 20.9843 93.8787 20.7471 93.8787 20.5436L92.4706 9.99815ZM112.627 20.8827C112.627 21.7643 112.849 22.3068 113.553 22.3068C113.961 22.3068 114.368 22.1712 114.665 22.0695L114.85 22.612C114.035 23.4936 112.997 23.9684 111.701 23.9684C110.144 23.9684 109.181 23.1206 108.885 21.6964C107.995 22.7815 106.55 23.9005 104.475 23.9005C102.252 23.9005 100.77 22.6459 100.77 20.6114C100.77 18.4413 102.475 17.5257 104.587 16.8136L108.81 15.4234V13.2533C108.81 11.7614 108.292 10.7102 106.847 10.7102C105.55 10.7102 104.735 11.0154 104.327 11.5579C105.179 11.7275 105.698 12.3717 105.698 13.1855C105.698 14.3046 104.846 15.0165 103.586 15.0165C102.401 15.0165 101.622 14.3046 101.622 13.1855C101.622 11.0493 104.031 9.96425 107.18 9.96425C110.737 9.96425 112.664 11.151 112.664 14.1689V20.8827H112.627ZM108.81 21.12V16.3729L106.402 17.2545C105.216 17.6952 104.475 18.2718 104.475 19.6958C104.475 21.0522 105.142 21.9678 106.661 21.9678C107.477 21.9338 108.032 21.6286 108.81 21.12ZM115.295 22.7137L115.109 19.1873H116.147C116.777 21.4252 118.148 23.0866 120.334 23.0866C121.853 23.0866 122.964 22.4425 122.964 21.0522C122.964 19.662 121.964 19.1194 119.741 18.4073C116.777 17.458 115.221 16.3729 115.221 14.0332C115.221 11.4562 117.332 9.96425 120.408 9.96425C122.223 9.96425 123.78 10.3711 124.965 11.0832V14.1689H124.002C123.52 12.3378 122.372 10.8459 120.408 10.8459C119 10.8459 118.148 11.6257 118.148 12.7447C118.148 13.8976 119 14.4741 121.186 15.1861C124.187 16.1355 125.966 17.1867 125.966 19.6958C125.966 22.4085 123.742 24.0022 120.334 24.0022C118.185 23.9684 116.443 23.4597 115.295 22.7137ZM131.968 10.1677H135.599V11.3206H131.968V19.8315C131.968 21.3574 132.598 22.0356 133.932 22.0356C134.673 22.0356 135.303 21.7981 136.007 21.3574L136.377 21.7981C135.488 23.0866 134.08 24.0022 132.042 24.0022C129.782 24.0022 128.115 22.9171 128.115 20.035V11.3545H126.373V10.812C128.3 9.99815 129.93 8.57401 131.116 6.91251H131.968V10.1677ZM148.901 15.2539V15.8303H139.786C139.675 19.3908 141.676 21.5609 144.417 21.5609C146.307 21.5609 147.567 20.781 148.604 19.4586L149.011 19.6958C148.308 22.239 146.27 23.9684 143.084 23.9684C139.045 23.9684 136.303 21.2217 136.303 17.2885C136.303 12.9482 139.378 9.93035 143.195 9.93035C146.937 9.93035 148.901 12.2022 148.901 15.2539ZM139.86 14.9148H145.418C145.418 12.4735 144.714 10.8459 142.898 10.8459C141.046 10.8459 140.082 12.5752 139.86 14.9148ZM177.06 7.04816L177.135 11.151H176.023C175.393 8.20103 173.726 6.60735 171.021 6.60735C167.168 6.60735 165.426 10.0999 165.426 14.4741C165.426 19.2211 167.464 22.8832 171.28 22.8832C173.91 22.8832 175.69 21.3574 176.652 17.6614H177.801L177.357 22.4764C175.727 23.4258 173.541 24.0022 170.909 24.0022C164.833 24.0022 161.091 20.5096 161.091 15.2539C161.091 9.28609 165.426 5.55619 170.909 5.55619C173.429 5.52227 175.468 6.06482 177.06 7.04816ZM184.137 21.7643C184.137 22.6459 184.545 22.8154 185.879 22.8832V23.731H178.506V22.8832C179.802 22.8154 180.246 22.6459 180.246 21.7643V8.13321L178.579 7.35332V6.81079L183.508 5.5901H184.137V21.7643ZM194.4 21.0861V16.339L191.992 17.2206C190.844 17.6275 190.103 18.2039 190.103 19.662C190.103 20.9843 190.769 21.9338 192.252 21.9338C193.029 21.9338 193.585 21.6286 194.4 21.0861ZM200.885 22.7137L200.736 19.1873H201.773C202.366 21.4252 203.774 23.0866 205.923 23.0866C207.443 23.0866 208.592 22.4425 208.592 21.0522C208.592 19.662 207.555 19.1194 205.331 18.4073C202.366 17.458 200.811 16.3729 200.811 14.0332C200.811 11.4562 202.922 9.96425 206.035 9.96425C207.814 9.96425 209.37 10.3711 210.556 11.0832V14.1689H209.592C209.11 12.3378 207.961 10.8459 205.997 10.8459C204.552 10.8459 203.7 11.6257 203.7 12.7447C203.7 13.8976 204.589 14.4741 206.738 15.1861C209.776 16.1355 211.555 17.1867 211.555 19.6958C211.555 22.4085 209.332 24.0022 205.887 24.0022C203.774 23.9684 202.034 23.4597 200.885 22.7137ZM213.038 22.7137L212.889 19.1873H213.926C214.519 21.4252 215.965 23.0866 218.113 23.0866C219.633 23.0866 220.782 22.4425 220.782 21.0522C220.782 19.662 219.708 19.1194 217.557 18.4073C214.556 17.458 213.001 16.3729 213.001 14.0332C213.001 11.4562 215.15 9.96425 218.225 9.96425C220.004 9.96425 221.56 10.3711 222.782 11.0832V14.1689H221.819C221.375 12.3378 220.189 10.8459 218.225 10.8459C216.78 10.8459 215.965 11.6257 215.965 12.7447C215.965 13.8976 216.817 14.4741 218.966 15.1861C222.004 16.1355 223.746 17.1867 223.746 19.6958C223.746 22.4085 221.523 24.0022 218.076 24.0022C215.965 23.9684 214.187 23.4597 213.038 22.7137ZM198.254 20.8827C198.254 21.7643 198.476 22.3068 199.18 22.3068C199.587 22.3068 199.996 22.1712 200.292 22.0695L200.477 22.612C199.662 23.4936 198.587 23.9684 197.328 23.9684C195.771 23.9684 194.809 23.1206 194.512 21.6964C193.623 22.7815 192.177 23.9005 190.103 23.9005C187.88 23.9005 186.397 22.6459 186.397 20.6114C186.397 18.4413 188.102 17.5257 190.213 16.8136L194.438 15.4234V13.2533C194.438 11.7614 193.919 10.7102 192.474 10.7102C191.14 10.7102 190.362 11.0154 189.954 11.5579C190.806 11.7275 191.325 12.3717 191.325 13.1855C191.325 14.3046 190.473 15.0165 189.213 15.0165C188.027 15.0165 187.249 14.3046 187.249 13.1855C187.249 11.0493 189.657 9.96425 192.807 9.96425C196.364 9.96425 198.291 11.151 198.291 14.1689V20.8827H198.254ZM156.311 11.6257C156.311 12.8804 157.126 13.6602 158.35 13.6602C159.683 13.6602 160.536 12.8803 160.536 11.7275C160.536 10.5746 159.756 9.89644 158.682 9.89644C157.164 9.89644 156.199 10.8798 155.088 13.6942L155.2 9.89644H154.569L149.567 11.2867V11.7614L151.235 12.6769V21.6964C151.235 22.578 150.791 22.7476 149.494 22.8154V23.6632H157.46V22.8154C155.755 22.6799 155.125 22.5442 155.125 21.493V14.9148C155.755 13.3212 156.718 12.2361 158.35 11.3545L156.311 11.6257Z" fill="#2C2C2C"/>
</svg>
