<svg width="111" height="32" viewBox="0 0 111 32" fill="none" xmlns="http://www.w3.org/2000/svg">
<g clip-path="url(#clip0_2600_2265)">
<path d="M24.7823 15.1176C24.6743 17.4226 23.0182 20.5801 19.8172 24.5872C16.5081 28.7725 13.7078 30.8659 11.4162 30.8659C9.99798 30.8659 8.79738 29.5915 7.81594 27.0415C7.16165 24.7045 6.50578 22.369 5.85149 20.032C5.12361 17.4835 4.34252 16.2077 3.50666 16.2077C3.32507 16.2077 2.68643 16.5806 1.59541 17.3236L0.451172 15.8879C1.65176 14.8618 2.83669 13.8341 4.00286 12.805C5.60573 11.4591 6.80788 10.7496 7.61088 10.6781C9.50491 10.5015 10.6711 11.762 11.1093 14.4584C11.5821 17.3693 11.9092 19.1795 12.0924 19.8874C12.6387 22.3021 13.2397 23.5079 13.8956 23.5079C14.4058 23.5079 15.1714 22.7237 16.1919 21.1587C17.211 19.592 17.7572 18.4 17.8308 17.5824C17.9764 16.2304 17.4301 15.553 16.1919 15.553C15.608 15.553 15.007 15.6824 14.3903 15.9412C15.5862 12.129 17.8714 10.2761 21.2462 10.3812C23.7477 10.4527 24.9263 12.0315 24.7823 15.1176Z" fill="#2C2C2C"/>
<path d="M35.0519 3.67967C35.0159 4.5627 34.5604 5.40919 33.6838 6.22066C32.7008 7.13718 31.5347 7.59545 30.1869 7.59545C28.1097 7.59545 27.1064 6.71393 27.1799 4.95093C27.2144 4.0344 27.7716 3.15137 28.8455 2.30489C29.9208 1.45993 31.1136 1.03516 32.4268 1.03516C33.1924 1.03516 33.8294 1.32747 34.3412 1.90905C34.85 2.49063 35.0879 3.08134 35.0519 3.67967ZM39.8073 22.5871C38.7867 24.4628 37.3842 26.1634 35.5982 27.6859C33.1563 29.7397 30.716 30.7673 28.2741 30.7673C27.1424 30.7673 26.2783 30.4126 25.6773 29.7031C25.0762 28.9952 24.7928 28.0756 24.8304 26.9414C24.8649 25.7737 25.239 23.9665 25.9497 21.5214C26.6603 19.0779 27.0172 17.767 27.0172 17.5904C27.0172 16.6693 26.6884 16.208 26.0326 16.208C25.8151 16.208 25.1936 16.581 24.173 17.3239L22.916 15.8882C24.0823 14.8622 25.2484 13.8345 26.4145 12.8053C27.9815 11.4594 29.1476 10.75 29.9146 10.6784C31.1167 10.5734 31.9995 10.9175 32.5646 11.7122C33.1281 12.5084 33.3378 13.5391 33.1938 14.8103C32.7196 16.9647 32.2093 19.7006 31.663 23.0194C31.6254 24.539 32.1905 25.2971 33.3566 25.2971C33.8669 25.2971 34.778 24.7734 36.0897 23.7244C37.1839 22.8505 38.0761 22.0284 38.7695 21.258L39.8073 22.5871Z" fill="#2C2C2C"/>
<path d="M73.945 22.5851C72.9245 24.4623 71.5219 26.1614 69.7359 27.6838C67.2941 29.7376 64.8522 30.7652 62.4118 30.7652C60.042 30.7652 58.8946 29.4909 58.9682 26.9393C59.0025 25.805 59.2311 24.4439 59.6507 22.85C60.0685 21.2544 60.2971 20.0151 60.333 19.1291C60.3706 17.7847 59.9496 17.1103 59.0715 17.1103C58.1213 17.1103 56.988 18.2095 55.6716 20.4064C54.2832 22.7114 53.5318 24.9434 53.4238 27.1052C53.3456 28.6308 53.502 29.8 53.8825 30.6145C51.3404 30.686 49.5591 30.278 48.5431 29.392C47.6322 28.6124 47.2158 27.3199 47.2894 25.5113C47.3207 24.377 47.5022 23.2427 47.8263 22.1085C48.1471 20.9743 48.3256 19.9649 48.3616 19.0773C48.4399 17.7664 47.9421 17.1103 46.884 17.1103C45.9714 17.1103 44.9853 18.1212 43.9287 20.1415C42.8705 22.1602 42.2866 24.2704 42.1771 26.4673C42.0989 28.4541 42.2398 29.8349 42.5684 30.6145C40.0671 30.686 38.2904 30.173 37.2401 29.0768C36.3666 28.1588 35.9691 26.7627 36.0427 24.8885C36.074 23.9705 36.2445 22.6886 36.5451 21.0458C36.8457 19.4016 37.0132 18.1212 37.0476 17.2016C37.1259 16.5668 36.9537 16.247 36.5561 16.247C36.337 16.247 35.717 16.6064 34.6965 17.3234L33.3848 15.8877C33.5679 15.7477 34.7137 14.7185 36.8284 12.8048C38.3594 11.4239 39.3971 10.7144 39.9434 10.6794C40.892 10.6078 41.6559 10.9884 42.2398 11.8212C42.822 12.654 43.1147 13.6208 43.1147 14.7185C43.1147 15.0732 43.0834 15.4097 43.0052 15.7293C43.5515 14.9148 44.1885 14.2039 44.918 13.601C46.5944 12.1851 48.4712 11.3858 50.5484 11.2092C52.3344 11.0676 53.6086 11.4741 54.3755 12.4317C54.9938 13.2112 55.285 14.3287 55.2489 15.7812C55.5042 15.5696 55.778 15.3381 56.0707 15.09C56.9066 14.1339 57.7269 13.3727 58.5283 12.8048C59.876 11.8471 61.2816 11.3158 62.7373 11.2092C64.4875 11.0676 65.7443 11.4726 66.5098 12.4272C67.164 13.2037 67.4568 14.3165 67.3848 15.7629C67.3472 16.7525 67.1015 18.1913 66.6459 20.0806C66.1889 21.97 65.9636 23.0539 65.9636 23.3371C65.926 24.0801 65.9995 24.5916 66.1811 24.8733C66.3643 25.1564 66.7994 25.2965 67.4928 25.2965C68.0031 25.2965 68.9125 24.7728 70.2259 23.7223C71.3185 22.85 72.2122 22.0278 72.9057 21.2575L73.945 22.5851Z" fill="#2C2C2C"/>
<path d="M82.0352 16.98C82.0695 16.0284 81.6704 15.5519 80.8346 15.5519C79.742 15.5519 78.6321 16.2842 77.5052 17.7472C76.3766 19.2104 75.7942 20.6126 75.7583 21.9523C75.7379 21.9523 75.7379 22.1822 75.7583 22.6404C77.5411 22.0056 79.0877 21.0373 80.3978 19.731C81.4528 18.6029 81.9976 17.6848 82.0352 16.98ZM94.4433 22.5309C93.3867 24.2314 91.3095 25.929 88.2119 27.6281C84.3502 29.7869 80.4307 30.8648 76.4595 30.8648C73.5089 30.8648 71.3926 29.9087 70.1185 27.995C69.2074 26.6841 68.7707 25.1251 68.8068 23.318C68.8427 20.4482 70.156 17.7199 72.7435 15.1317C75.5845 12.2969 78.9374 10.8779 82.8006 10.8779C86.3726 10.8779 88.2666 12.2938 88.4858 15.121C88.6313 16.9236 87.6107 18.781 85.424 20.6901C83.0917 22.7775 80.1568 24.1021 76.6239 24.6669C77.2781 25.5514 78.2612 25.9929 79.5745 25.9929C82.198 25.9929 85.0593 25.3444 88.1571 24.0457C90.3797 23.1337 92.1298 22.1868 93.4055 21.2047L94.4433 22.5309Z" fill="#2C2C2C"/>
<path d="M103.105 18.7674C103.141 17.8082 103.004 16.9297 102.694 16.1304C102.384 15.3327 101.937 14.9307 101.356 14.9307C99.4966 14.9307 97.9656 15.9082 96.7651 17.8615C95.743 19.46 95.1951 21.1652 95.1246 22.9739C95.0871 23.863 95.2514 24.6455 95.6162 25.3185C96.0153 26.101 96.5803 26.4908 97.3114 26.4908C98.9503 26.4908 100.354 25.5514 101.52 23.6682C102.504 22.1046 103.031 20.471 103.105 18.7674ZM109.281 18.9684C109.136 22.2248 107.897 25.0384 105.565 27.4088C103.233 29.7793 100.334 30.9653 96.873 30.9653C93.9945 30.9653 91.8077 30.0625 90.3144 28.2568C89.2218 26.9125 88.6192 25.2317 88.5111 23.216C88.3265 20.1711 89.4567 17.3759 91.9 14.8272C94.5236 11.9969 97.8201 10.5811 101.793 10.5811C104.343 10.5811 106.274 11.4138 107.588 13.0764C108.827 14.5989 109.391 16.5628 109.281 18.9684Z" fill="#2C2C2C"/>
</g>
<defs>
<clipPath id="clip0_2600_2265">
<rect width="110" height="32" fill="white" transform="translate(0.256836)"/>
</clipPath>
</defs>
</svg>
