<svg width="142" height="30" viewBox="0 0 142 30" fill="none" xmlns="http://www.w3.org/2000/svg">
<g clip-path="url(#clip0_2600_2262)">
<path d="M93.9034 24.6855C95.767 24.7329 97.5573 24.0027 98.907 22.6315L101.375 25.4394C99.7372 27.2084 97.4725 28.5262 93.9486 28.5262C87.8945 28.5262 83.9921 24.3055 83.9921 18.6007C83.9921 12.9436 88.0978 8.6754 93.3895 8.6754C99.3984 8.6754 102.787 13.4838 102.493 20.1323H88.318C88.815 22.9225 90.6731 24.6855 93.9034 24.6855ZM98.2124 16.9802C97.8283 14.4098 96.3714 12.4983 93.4346 12.4983C90.6957 12.4983 88.815 14.1249 88.3237 16.9802H98.2124ZM0.759766 24.4778L11.682 12.807H1.00825V9.1503H16.7307V12.8961L5.83118 24.543H16.8889V28.1998H0.759766V24.4778ZM29.1326 24.6855C30.9963 24.7329 32.7866 24.0027 34.1363 22.6315L36.6043 25.4394C34.9665 27.2084 32.7018 28.5262 29.1777 28.5262C23.1463 28.5262 19.2214 24.3055 19.2214 18.6007C19.2214 12.9436 23.327 8.6754 28.6187 8.6754C34.6276 8.6754 38.0161 13.4838 37.7224 20.1323H23.5473C24.0612 22.9225 25.9022 24.6855 29.1326 24.6855ZM33.4585 16.9802C33.0746 14.4098 31.6175 12.4983 28.6808 12.4983C25.9418 12.4983 24.0612 14.1249 23.5699 16.9802H33.4585ZM61.3175 18.6305C61.3175 12.5221 65.6435 8.72882 70.4212 8.72882C72.8214 8.72882 75.1086 9.8389 76.4527 11.5842V0.334961H80.31V28.1522H76.4527V25.5106C75.0635 27.3745 72.7763 28.5262 70.376 28.5262C65.7564 28.5322 61.3175 24.6855 61.3175 18.6305ZM76.6786 18.583C76.6786 15.1875 74.2332 12.4034 70.9351 12.4034C67.7048 12.4034 65.1917 15.1163 65.1917 18.583C65.1917 22.0497 67.7048 24.7804 70.9351 24.7804C74.2332 24.8041 76.6786 22.026 76.6786 18.583ZM105.006 24.0978L108.508 22.1863C109.451 23.9553 111.247 25.0178 113.172 24.9704C115.347 24.9704 116.493 23.789 116.493 22.4476C116.493 20.916 114.387 20.5835 112.099 20.0909C109.005 19.4081 105.797 18.3456 105.797 14.4098C105.797 11.3942 108.536 8.6101 112.817 8.65759C116.205 8.65759 118.713 10.0704 120.13 12.3618L116.877 14.2496C116.047 12.9079 114.613 12.0828 112.794 12.0828C110.71 12.0828 109.654 13.1454 109.654 14.3682C109.654 15.7336 111.337 16.1135 113.963 16.7249C116.945 17.4077 120.334 18.4465 120.334 22.406C120.334 25.0476 118.159 28.5856 112.975 28.5382C109.202 28.5322 106.531 26.9294 105.006 24.0978ZM130.798 19.693L127.749 23.2074V28.1582H123.891V0.334961H127.749V18.5356L135.937 9.10281H140.625L133.537 17.2593L140.828 28.1522H136.457L130.798 19.693ZM49.6555 8.70508C45.0584 8.70508 41.2238 11.8394 41.2238 17.004V28.1522H45.1714V17.5442C45.1714 14.4098 46.877 12.5458 49.7911 12.5458C52.7051 12.5458 54.1622 14.4098 54.1622 17.5442V28.1522H58.0872V17.0277C58.0872 11.8394 54.2525 8.70508 49.6555 8.70508Z" fill="#2C2C2C"/>
</g>
<defs>
<clipPath id="clip0_2600_2262">
<rect width="140.786" height="29.3304" fill="white" transform="translate(0.759766 0.334961)"/>
</clipPath>
</defs>
</svg>
